<svg xmlns="http://www.w3.org/2000/svg" version="1.1" xmlns:xlink="http://www.w3.org/1999/xlink" xmlns:svgjs="http://svgjs.dev/svgjs" width="1500" height="1500" viewBox="0 0 1500 1500"><rect width="1500" height="1500" fill="#ffffff"></rect><g transform="matrix(0.6666666666666666,0,0,0.6666666666666666,249.39393939393938,636.114037371632)"><svg viewBox="0 0 396 90" data-background-color="#ffffff" preserveAspectRatio="xMidYMid meet" height="340" width="1500" xmlns="http://www.w3.org/2000/svg" xmlns:xlink="http://www.w3.org/1999/xlink"><g id="tight-bounds" transform="matrix(1,0,0,1,0.2400000000000091,0.21942633773431908)"><svg viewBox="0 0 395.52 89.56114732453133" height="89.56114732453133" width="395.52"><g><svg viewBox="0 0 586.3236778418719 132.76653845837617" height="89.56114732453133" width="395.52"><g><rect width="8.663548084836506" height="115.28208838643371" x="159.46068450877232" y="8.74222503597123" fill="#3d3839" opacity="1" stroke-width="0" stroke="transparent" fill-opacity="1" class="rect-yte-0" data-fill-palette-color="primary" rx="1%" id="yte-0" data-palette-color="#3d3839"></rect></g><g transform="matrix(1,0,0,1,190.80367784187195,18.349065734840707)"><svg viewBox="0 0 395.52 96.06840698869476" height="96.06840698869476" width="395.52"><g id="textblocktransform"><svg viewBox="0 0 395.52 96.06840698869476" height="96.06840698869476" width="395.52" id="textblock"><g><svg viewBox="0 0 395.52 96.06840698869476" height="96.06840698869476" width="395.52"><g transform="matrix(1,0,0,1,0,0)"><svg width="395.52" viewBox="1.46 -33.2 142.51999999999998 34.620000000000005" height="96.06840698869476" data-palette-color="#3d3839"><path d="M3.17-32.42L3.17-32.42Q6.79-33.2 10.01-33.2 13.23-33.2 15.75-32.96 18.26-32.71 20.8-32.03L20.8-32.03Q26.17-30.52 27.44-27.93L27.44-27.93Q27.78-27.39 27.78-26.66L27.78-26.66Q27.78-24.51 24.02-22.02L24.02-22.02Q21.53-20.36 16.89-18.65L16.89-18.65Q28.27-18.02 32.32-15.33L32.32-15.33Q34.57-13.92 34.57-12.01L34.57-12.01Q34.57-9.38 30.86-6.54L30.86-6.54Q26.81-3.52 20.51-1.51L20.51-1.51Q14.7 0.34 9.72 0.34L9.72 0.34Q5.91 0.34 3.17-0.78L3.17-0.78Q3.08-3.91 2.93-7.23L2.93-7.23Q2.54-14.6 2.54-19.65 2.54-24.71 2.88-30.18L2.88-30.18Q2.34-30.18 1.9-30.3 1.46-30.42 1.46-31.25L1.46-31.25Q1.46-32.42 3.17-32.42ZM6.4-14.6L7.57-3.22Q15.43-3.66 20.46-5.1 25.49-6.54 27.71-8.23 29.93-9.91 29.93-11.47L29.93-11.47Q29.93-13.53 27-14.75L27-14.75Q23.83-16.02 18.58-16.02 13.33-16.02 6.4-14.6L6.4-14.6ZM12.11-30.03L12.11-30.03 10.89-30.03Q6.88-30.03 6.4-29.2L6.4-29.2 5.91-19.38Q10.3-19.38 16.6-21.48L16.6-21.48Q20.7-22.9 22.61-24.61L22.61-24.61Q23.58-25.49 23.58-26.42 23.58-27.34 22.88-27.95 22.17-28.56 21.07-28.96 19.97-29.35 18.63-29.57 17.29-29.79 16.02-29.88L16.02-29.88Q14.06-30.03 12.11-30.03ZM46.82-3.42L46.82-3.42Q51.12-3.42 59.76-7.32L59.76-7.32Q60.3-7.32 60.64-6.96 60.98-6.59 60.98-6.1L60.98-6.1Q59.03-2.78 53.51-0.93 48 0.93 43.21-0.29L43.21-0.29Q37.79-1.71 36.62-6.4L36.62-6.4Q36.52-7.32 36.52-8.89 36.52-10.45 37.33-13.01 38.13-15.58 40.09-17.87 42.04-20.17 44.68-21.48 47.31-22.8 50.29-22.8L50.29-22.8Q53.12-22.8 56.64-20.85L56.64-20.85Q58.3-19.92 59.27-18.75 60.25-17.58 60.25-16.36L60.25-16.36Q60.25-16.02 60.2-15.67L60.2-15.67Q60.1-12.7 57.32-11.91L57.32-11.91Q56.1-11.57 54.49-11.57L54.49-11.57 47.46-11.87Q43.94-11.87 42.09-10.35L42.09-10.35Q41.01-9.52 40.57-7.86L40.57-7.86Q41.79-3.42 46.82-3.42ZM55.54-18.51Q54.44-19.29 53.27-19.63 52.1-19.97 51.32-19.97 50.53-19.97 48.78-19.46 47.02-18.95 45.65-18.31L45.65-18.31Q42.28-16.75 42.28-15.04L42.28-15.04Q46.19-14.7 48.14-14.7L48.14-14.7Q53.56-14.7 55.47-15.63L55.47-15.63Q56.64-16.11 56.64-16.85L56.64-16.85Q56.64-17.72 55.54-18.51ZM83.1-8.11L83.1-8.11Q79.44-2.34 73.33-0.98L73.33-0.98Q71.92-0.68 70.77-0.68 69.62-0.68 68.87-0.71 68.11-0.73 67.18-0.93 66.25-1.12 65.47-1.56L65.47-1.56Q63.67-2.59 63.67-4.44L63.67-4.44Q63.47-5.32 63.47-6.42 63.47-7.52 63.96-9.33 64.45-11.13 65.74-13.23 67.04-15.33 68.89-17.09L68.89-17.09Q72.75-20.8 77.24-21.88L77.24-21.88Q78.56-22.17 79.66-22.17 80.76-22.17 81.64-22.02L81.64-22.02Q84.47-22.02 85.44-18.16L85.44-18.16Q86.08-15.72 86.2-11.35 86.32-6.98 86.45-4.61 86.57-2.25 87.06-0.29L87.06-0.29 84.17-0.29Q83.98-1.61 83.88-2.64 83.78-3.66 83.69-4.54L83.69-4.54Q83.44-6.59 83.1-8.11ZM82.91-15.67L82.91-15.67Q82.91-18.51 80.12-18.51L80.12-18.51Q79.78-18.55 79.44-18.55L79.44-18.55Q75.87-18.55 71.92-15.14L71.92-15.14Q70.06-13.57 68.75-11.62L68.75-11.62Q66.79-8.84 66.79-6.64L66.79-6.64Q66.79-3.76 70.11-3.22L70.11-3.22Q74.51-3.32 78.51-7.23L78.51-7.23Q80.22-8.94 81.34-10.94L81.34-10.94Q82.91-13.62 82.91-15.67ZM108.34-7.71L108.39-10.69Q108.39-16.5 107.76-19.24L107.76-19.24Q108.15-19.97 106.58-19.97L106.58-19.97Q104.92-19.97 102.29-19.14 99.65-18.31 97.99-17.48L97.99-17.48Q94.04-15.58 93.6-13.77L93.6-13.77 93.6-0.49 90.32-0.49Q89.69-2.15 89.69-9.81L89.69-9.81Q89.69-16.65 89.96-19.87 90.23-23.1 90.37-23.54L90.37-23.54Q91.64-24.37 92.42-24.37L92.42-24.37Q93.64-24.37 93.64-21.48L93.64-21.48Q93.64-20.36 93.52-19.31 93.4-18.26 93.4-17.87L93.4-17.87Q101.31-23.68 105.66-23.68L105.66-23.68Q110.59-23.68 111.27-15.72L111.27-15.72Q111.56-12.94 111.56-8.01L111.56-8.01 111.52-4.15Q111.52-2 111.61 0L111.61 0Q111.13 0.29 110.83 0.29L110.83 0.29Q110.69 0.24 110.2 0.15 109.71 0.05 108.93 0L108.93 0Q108.44-1.95 108.39-3.98 108.34-6.01 108.34-7.71L108.34-7.71ZM115.66-22.95L118.74-22.95Q119.37-13.82 119.81-1.81L119.81-1.81Q119.52-0.29 117.47-0.29L117.47-0.29Q116.93-0.29 116.37-0.51 115.81-0.73 115.66-1.12L115.66-1.12 115.66-22.95ZM114.2-29.59L114.2-29.59Q114.2-31.3 116.2-31.3L116.2-31.3Q117.52-31.3 118.35-30.71L118.35-30.71Q118.5-30.18 118.5-29.66 118.5-29.15 118.11-28.66L118.11-28.66Q117.71-28.17 116.93-28.17 116.15-28.17 115.37-28.54 114.59-28.91 114.2-29.59ZM138.61-12.6L138.61-12.6Q143.98-12.6 143.98-9.86L143.98-9.86Q143.98-7.81 141-5.08L141-5.08Q136.56-1.03 129.04 1.42L129.04 1.42Q128.7 1.42 128.28 0.73 127.87 0.05 127.65-0.32 127.43-0.68 127.33-0.78L127.33-0.78Q132.95-2.64 136.56-5.27L136.56-5.27Q139-7.03 139-8.15 139-9.28 136.12-9.28 133.24-9.28 127.67-7.91L127.67-7.91Q125.13-8.01 123.28-9.72L123.28-9.72Q121.67-11.23 121.67-12.77 121.67-14.31 122.55-15.6 123.43-16.89 124.89-18.02 126.35-19.14 128.31-20.07L128.31-20.07Q133.09-22.36 138.22-22.36L138.22-22.36Q139.73-22.36 141.15-22.07L141.15-22.07Q142.32-22.07 142.52-21.04 142.71-20.02 142.71-17.68L142.71-17.68Q139.83-18.99 136.22-18.99L136.22-18.99Q131.73-18.99 128.8-17.19L128.8-17.19Q125.77-15.43 125.67-12.6L125.67-12.6Q125.67-11.23 127.67-11.23L127.67-11.23 131.24-11.62Q135.83-12.6 138.61-12.6Z" opacity="1" transform="matrix(1,0,0,1,0,0)" fill="#3d3839" class="wordmark-text-0" data-fill-palette-color="primary" id="text-0"></path></svg></g></svg></g></svg></g></svg></g><g><svg viewBox="0 0 136.7812392605092 132.76653845837617" height="132.76653845837617" width="136.7812392605092"><g><svg xmlns="http://www.w3.org/2000/svg" xmlns:xlink="http://www.w3.org/1999/xlink" version="1.1" x="0" y="0" viewBox="11.254466798572398 10.8579708997493 77.0021383692432 74.74202910025069" enable-background="new 0 0 100 100" xml:space="preserve" height="132.76653845837617" width="136.7812392605092" class="icon-icon-0" data-fill-palette-color="accent" id="icon-0"><path d="M74.958 48.207A4 4 0 0 0 74.4 48.093C74.158 48.063 73.928 48.023 73.702 47.985L73.43 47.94C61.916 45.831 58.775 39.071 57.127 32.058A20 20 0 0 0 55.668 27.101C53.38 16.55 44.624 9.925 34.269 10.965 23.191 12.072 11.27 22.387 11.271 42.322 10.939 52.503 15.624 63.449 23.802 71.605 32.612 80.384 47.169 85.6 60.302 85.6 65.303 85.6 70.097 84.844 74.289 83.241 82.801 79.985 87.754 73.5 88.235 64.978 88.478 60.629 86.662 56.179 83.251 52.77A16.84 16.84 0 0 0 74.958 48.207M63.461 50.869C62.927 51.125 62.405 51.385 61.892 51.641 60.375 52.397 58.942 53.112 57.44 53.605 54.993 54.408 52.685 54.108 51.111 52.779 49.867 51.729 49.295 50.19 49.54 48.556 49.866 46.384 50.898 45.033 52.204 43.323 52.756 42.601 53.337 41.834 53.884 40.978 55.755 44.766 58.667 48.331 63.461 50.869M72.146 77.636C59.14 82.61 38.527 77.808 28.038 67.355 21.016 60.353 16.989 51.067 17.27 42.42 17.27 26.03 26.107 17.81 34.865 16.935 35.34 16.888 35.825 16.863 36.317 16.863 41.758 16.863 48.084 19.876 49.856 28.619 49.857 28.625 49.856 28.63 49.858 28.636 51.129 34.85 49.5 36.982 47.437 39.681 45.902 41.69 44.163 43.968 43.607 47.666 43.054 51.351 44.413 54.976 47.241 57.364 49.326 59.124 52.003 60.037 54.85 60.037 56.312 60.037 57.82 59.796 59.314 59.305 61.23 58.676 62.928 57.828 64.571 57.01 68.272 55.165 71.216 53.705 75.806 54.813A10.9 10.9 0 0 1 79.009 57.012C81.213 59.216 82.393 61.997 82.245 64.641 81.895 70.834 78.497 75.207 72.146 77.636" fill="#ff1d05" data-fill-palette-color="accent"></path><path d="M25.608 26.754A1.5 1.5 0 0 0 23.545 27.247C21.075 31.267 19.77 36.514 19.77 42.394L19.766 42.622A1.5 1.5 0 0 0 21.241 44.148H21.267A1.5 1.5 0 0 0 22.766 42.674L22.77 42.42C22.77 37.069 23.922 32.365 26.102 28.817A1.5 1.5 0 0 0 25.608 26.754" fill="#ff1d05" data-fill-palette-color="accent"></path><path d="M20.81 47.15C20.531 47.43 20.38 47.82 20.38 48.21 20.38 48.61 20.53 48.99 20.81 49.27S21.48 49.71 21.88 49.71C22.27 49.71 22.65 49.55 22.94 49.27 23.22 48.99 23.38 48.6 23.38 48.21S23.22 47.43 22.94 47.15C22.37 46.59 21.38 46.6 20.81 47.15" fill="#ff1d05" data-fill-palette-color="accent"></path></svg></g></svg></g></svg></g><defs></defs></svg><rect width="395.52" height="89.56114732453133" fill="none" stroke="none" visibility="hidden"></rect></g></svg></g></svg>