<?xml version="1.0" encoding="utf-8"?>
<svg width="19.109228mm" height="20.085741mm" viewBox="0 0 19.109228 20.085741" version="1.1" id="svg8" xmlns="http://www.w3.org/2000/svg">
  <defs id="defs2">
    <style id="style3774" type="text/css">
   
    .fil1 {fill:#91000F}
    .fil2 {fill:#FF0A0A}
    .fil0 {fill:black;fill-rule:nonzero}
   
  </style>
    <clipPath clipPathUnits="userSpaceOnUse" id="clipPath3845">
      <rect id="rect3847" width="2099.4275" height="2492.2449" x="-1280.8276" y="-681.63812" style="stroke-width:26.14247894"/>
    </clipPath>
  </defs>
  <g id="layer1" transform="translate(-13.430839,-83.835696)">
    <g style="clip-rule:evenodd;fill-rule:evenodd;image-rendering:optimizeQuality;shape-rendering:geometricPrecision;text-rendering:geometricPrecision" id="Слой_x0020_1" transform="matrix(0.01012082,0,0,0.01012082,42.020045,87.38569)">
      <g id="g3828" clip-path="url(#clipPath3845)" transform="translate(-1755.2808,177.3954)">
        <g transform="translate(-1069.5197,-528.15785)" id="_1346890621664">
          <g id="g3787">
            <path id="path3781" d="m 111.03,1657.99 c 30.67,47.29 87.38,118.37 115.72,172.7 138.52,265.55 274.99,126.79 463.42,31.69 303.44,-153.16 674.58,-334.4 938.24,-401.3 328.84,-83.46 268.57,-244.73 213.65,-352.04 -49.94,-97.56 -48.11,-243.29 -189.34,-306.53 C 1620.76,517.54 1462.51,329.77 1273.1,282.9 1212.24,82.21 1075.81,-14.33 940.6,1.72 794.41,14.61 712.32,150.76 593.22,201.96 449.56,253.3 310.58,217.84 166.91,269.18 7.78,332.5 -27.6,469.98 19.02,605.66 c 31,90.2 64.96,173.68 111.23,243.03 -105.42,94.19 -143.18,293.12 -6.29,461.15 -129.81,110.24 -89.39,230.19 -12.91,348.14 z" class="fil1" style="fill:#91000f"/>
            <path id="path3783" d="m 1520.04,785.66 c -455.19,-2.8 -799.87,176.07 -1186.38,389.27 -97.2,63.87 -279.3,-182.7 -29.19,-362.59 60.95,-43.83 146.08,-73.74 257.68,-111.76 -89.27,14.34 -178.53,28.65 -267.8,42.99 -117.13,14.62 -167.73,-234.75 -87.43,-323.26 70.42,-77.58 213.51,-100.02 313.94,-93.58 97.1,6.25 180.65,-23.6 245.95,-102.01 46.3,-55.56 84.29,-104.73 161.85,-112.15 125.66,-12.02 208.97,54.58 254.62,217.2 -81.97,35.55 -135.71,96.36 -170.29,145.25 72.89,-54.97 159.32,-98.04 214.81,-111.66 209.37,99.56 286.19,249.86 292.24,422.31 z" class="fil2" style="fill:#ff0a0a"/>
            <path id="path3785" d="m 1521.58,885.23 c -106.29,13.71 -217.98,33.57 -331.97,60.84 85.18,22.45 150.12,97.56 155.44,190.28 6.61,115.31 -81.51,214.14 -196.82,220.75 -115.31,6.61 -214.14,-81.51 -220.75,-196.81 -3.5,-61.1 19.58,-117.57 59.22,-158.14 -244.97,77.2 -492.21,191.11 -712.52,354.06 -94.86,70.16 -118.94,123.95 -40.03,227.7 25.34,33.33 43.56,59.73 60.09,90.51 136.31,253.87 164.29,186.05 403.19,60.3 304.89,-160.49 599.4,-292.92 945.14,-381.61 114.5,-29.37 182,-95.97 121.7,-220.16 -23.05,-47.51 -38.17,-89.27 -65.59,-151.93 -42.61,-97.36 -68.06,-109.87 -177.11,-95.79 z" class="fil2" style="fill:#ff0a0a"/>
          </g>
        </g>
      </g>
    </g>
  </g>
</svg>