<?xml version="1.0" encoding="UTF-8"?>
<!DOCTYPE svg PUBLIC "-//W3C//DTD SVG 1.1//EN" "http://www.w3.org/Graphics/SVG/1.1/DTD/svg11.dtd">
<!-- Creator: CorelDRAW 2019 (64-Bit) -->
<svg xmlns="http://www.w3.org/2000/svg" xml:space="preserve" width="73.198mm" height="20.0858mm" version="1.1" style="shape-rendering:geometricPrecision; text-rendering:geometricPrecision; image-rendering:optimizeQuality; fill-rule:evenodd; clip-rule:evenodd"
viewBox="0 0 7232.42 1984.6"
 xmlns:xlink="http://www.w3.org/1999/xlink">
 <defs>
  <style type="text/css">
   <![CDATA[
    .fil1 {fill:#91000F}
    .fil2 {fill:#FF0A0A}
    .fil0 {fill:black;fill-rule:nonzero}
   ]]>
  </style>
 </defs>
 <g id="Слой_x0020_1">
  <metadata id="CorelCorpID_0Corel-Layer"/>
  <g id="_1346890621664">
   <path class="fil0" d="M3019.17 1211.4c95.63,55.09 143.46,138.26 143.46,249.5 0,92.51 -32.74,168.41 -98.24,227.66 -65.49,59.25 -146.06,88.88 -241.69,88.88l-463.11 0 0 -1091.52 430.37 0c93.56,0 172.3,28.85 236.24,86.54 63.93,57.69 95.9,131.24 95.9,220.64 0,90.44 -34.31,163.21 -102.92,218.3zm-229.22 -324.33l-215.19 0 0 240.13 215.19 0c33.27,0 61.07,-11.43 83.42,-34.31 22.35,-22.86 33.52,-51.46 33.52,-85.76 0,-34.31 -10.92,-62.89 -32.74,-85.75 -21.83,-22.87 -49.9,-34.31 -84.2,-34.31zm32.74 689.21c36.38,0 66.53,-12.21 90.44,-36.65 23.91,-24.42 35.87,-55.35 35.87,-92.78 0,-36.38 -11.96,-66.79 -35.87,-91.22 -23.91,-24.42 -54.06,-36.65 -90.44,-36.65l-247.93 0 0 257.29 247.93 0zm653.36 -106.04c27.02,97.72 100.32,146.58 219.86,146.58 76.92,0 135.14,-25.99 174.64,-77.97l162.17 93.56c-76.93,111.24 -190.24,166.84 -339.93,166.84 -128.9,0 -232.33,-38.98 -310.3,-116.95 -77.97,-77.96 -116.95,-176.2 -116.95,-294.71 0,-117.46 38.47,-215.45 115.39,-293.93 76.93,-78.48 175.69,-117.73 296.27,-117.73 114.35,0 208.69,39.5 283.01,118.51 74.33,79.01 111.49,176.72 111.49,293.15 0,25.99 -2.6,53.54 -7.8,82.64l-587.86 0zm-3.12 -155.93l397.63 0c-11.43,-53.02 -35.09,-92.52 -70.94,-118.51 -35.87,-25.99 -76.67,-38.98 -122.41,-38.98 -54.06,0 -98.76,13.77 -134.1,41.32 -35.34,27.55 -58.73,66.27 -70.17,116.17zm1325.42 -316.55l201.15 0 0 779.66 -201.15 0 0 -92c-60.29,75.88 -145.02,113.82 -254.17,113.82 -103.95,0 -193.1,-39.76 -267.42,-119.28 -74.33,-79.53 -111.49,-176.98 -111.49,-292.38 0,-115.39 37.16,-212.84 111.49,-292.37 74.32,-79.53 163.46,-119.29 267.42,-119.29 109.15,0 193.88,37.94 254.17,113.83l0 -92.01zm-371.12 548.1c40.54,41.06 92,61.6 154.37,61.6 62.37,0 114.08,-20.53 155.15,-61.6 41.06,-41.05 61.6,-93.82 61.6,-158.27 0,-64.45 -20.53,-117.2 -61.6,-158.27 -41.06,-41.06 -92.78,-61.6 -155.15,-61.6 -62.38,0 -113.83,20.53 -154.37,61.6 -40.54,41.06 -60.82,93.82 -60.82,158.27 0,64.45 20.28,117.21 60.82,158.27zm1188.19 -569.92c85.24,0 155.67,28.58 211.29,85.76 55.61,57.17 83.42,136.17 83.42,237.02l0 478.71 -201.15 0 0 -453.76c0,-51.98 -14.04,-91.74 -42.1,-119.29 -28.07,-27.55 -65.5,-41.32 -112.27,-41.32 -51.98,0 -93.56,16.12 -124.74,48.34 -31.19,32.23 -46.78,80.57 -46.78,145.02l0 421.01 -201.15 0 0 -779.66 201.15 0 0 87.32c48.86,-72.77 126.3,-109.15 232.34,-109.15zm566.02 -71.72c-33.26,0 -62.11,-12.22 -86.53,-36.65 -24.43,-24.42 -36.65,-53.28 -36.65,-86.54 0,-33.27 12.21,-62.37 36.65,-87.32 24.42,-24.95 53.28,-37.43 86.53,-37.43 34.31,0 63.67,12.48 88.11,37.43 24.42,24.95 36.64,54.05 36.64,87.32 0,33.27 -12.21,62.12 -36.64,86.54 -24.43,24.42 -53.8,36.65 -88.11,36.65zm-99.79 873.21l0 -779.66 201.15 0 0 779.66 -201.15 0zm555.11 -307.19c27.02,97.72 100.32,146.58 219.86,146.58 76.92,0 135.14,-25.99 174.64,-77.97l162.17 93.56c-76.93,111.24 -190.24,166.84 -339.93,166.84 -128.9,0 -232.33,-38.98 -310.3,-116.95 -77.97,-77.96 -116.95,-176.2 -116.95,-294.71 0,-117.46 38.47,-215.45 115.39,-293.93 76.93,-78.48 175.69,-117.73 296.27,-117.73 114.35,0 208.69,39.5 283.01,118.51 74.33,79.01 111.49,176.72 111.49,293.15 0,25.99 -2.6,53.54 -7.8,82.64l-587.86 0zm-3.12 -155.93l397.63 0c-11.43,-53.02 -35.09,-92.52 -70.94,-118.51 -35.87,-25.99 -76.67,-38.98 -122.41,-38.98 -54.06,0 -98.76,13.77 -134.1,41.32 -35.34,27.55 -58.73,66.27 -70.17,116.17z"/>
   <g>
    <path class="fil1" d="M111.03 1657.99c30.67,47.29 87.38,118.37 115.72,172.7 138.52,265.55 274.99,126.79 463.42,31.69 303.44,-153.16 674.58,-334.4 938.24,-401.3 328.84,-83.46 268.57,-244.73 213.65,-352.04 -49.94,-97.56 -48.11,-243.29 -189.34,-306.53 -31.96,-284.97 -190.21,-472.74 -379.62,-519.61 -60.86,-200.69 -197.29,-297.23 -332.5,-281.18 -146.19,12.89 -228.28,149.04 -347.38,200.24 -143.66,51.34 -282.64,15.88 -426.31,67.22 -159.13,63.32 -194.51,200.8 -147.89,336.48 31,90.2 64.96,173.68 111.23,243.03 -105.42,94.19 -143.18,293.12 -6.29,461.15 -129.81,110.24 -89.39,230.19 -12.91,348.14z"/>
    <path class="fil2" d="M1520.04 785.66c-455.19,-2.8 -799.87,176.07 -1186.38,389.27 -97.2,63.87 -279.3,-182.7 -29.19,-362.59 60.95,-43.83 146.08,-73.74 257.68,-111.76 -89.27,14.34 -178.53,28.65 -267.8,42.99 -117.13,14.62 -167.73,-234.75 -87.43,-323.26 70.42,-77.58 213.51,-100.02 313.94,-93.58 97.1,6.25 180.65,-23.6 245.95,-102.01 46.3,-55.56 84.29,-104.73 161.85,-112.15 125.66,-12.02 208.97,54.58 254.62,217.2 -81.97,35.55 -135.71,96.36 -170.29,145.25 72.89,-54.97 159.32,-98.04 214.81,-111.66 209.37,99.56 286.19,249.86 292.24,422.31z"/>
    <path class="fil2" d="M1521.58 885.23c-106.29,13.71 -217.98,33.57 -331.97,60.84 85.18,22.45 150.12,97.56 155.44,190.28 6.61,115.31 -81.51,214.14 -196.82,220.75 -115.31,6.61 -214.14,-81.51 -220.75,-196.81 -3.5,-61.1 19.58,-117.57 59.22,-158.14 -244.97,77.2 -492.21,191.11 -712.52,354.06 -94.86,70.16 -118.94,123.95 -40.03,227.7 25.34,33.33 43.56,59.73 60.09,90.51 136.31,253.87 164.29,186.05 403.19,60.3 304.89,-160.49 599.4,-292.92 945.14,-381.61 114.5,-29.37 182,-95.97 121.7,-220.16 -23.05,-47.51 -38.17,-89.27 -65.59,-151.93 -42.61,-97.36 -68.06,-109.87 -177.11,-95.79z"/>
   </g>
  </g>
 </g>
</svg>
